<?xml version="1.0" encoding="UTF-8" standalone="no"?>
<svg id="svg1" height="50px" width="50px" xmlns="http://www.w3.org/2000/svg" xmlns:svg="http://www.w3.org/2000/svg" xmlns:xlink="http://www.w3.org/1999/xlink">
  <defs id="defs1">
    <linearGradient id="linearGradient1">
      <stop id="stop11" offset="0" style="stop-color:#adadad;stop-opacity:1;"/>
      <stop id="stop12" offset="1" style="stop-color:#f0f0f0;stop-opacity:1;"/>
    </linearGradient>
    <linearGradient id="linearGradient2">
      <stop id="stop21" offset="0" style="stop-color:#828282;stop-opacity:1;"/>
      <stop id="stop22" offset="1" style="stop-color:#929292;stop-opacity:0.35294119;"/>
    </linearGradient>
    <linearGradient id="linearGradient3">
      <stop id="stop31" offset="0" style="stop-color:#d2cd00;stop-opacity:1;"/>
      <stop id="stop32" offset="1" style="stop-color:#fffe8f;stop-opacity:1;"/>
    </linearGradient>
    <linearGradient id="linearGradient4">
      <stop id="stop41" offset="0" style="stop-color:#ffffff;stop-opacity:0;"/>
      <stop id="stop42" offset="1" style="stop-color:#ffffff;stop-opacity:0.87450981;"/>
    </linearGradient>
    <linearGradient id="linearGradient11" xlink:href="#linearGradient1" gradientUnits="userSpaceOnUse" x1="23.193102" x2="23.200001" y1="42.429230" y2="44.000000"/>
    <linearGradient id="linearGradient12" xlink:href="#linearGradient2" gradientUnits="userSpaceOnUse" x1="22.935030" x2="23.662106" y1="42.699776" y2="43.892632"/>
    <linearGradient id="linearGradient13" xlink:href="#linearGradient3" gradientUnits="userSpaceOnUse" x1="23.213980" x2="23.201290" y1="42.754631" y2="43.892632"/>
    <linearGradient id="linearGradient14" xlink:href="#linearGradient4" gradientUnits="userSpaceOnUse" x1="23.402565" x2="23.389874" y1="44.066776" y2="42.883698"/>
  </defs>
  <g id="layer1">
    <g id="g1" style="overflow:visible" transform="matrix(31.250,0.0,0.0,31.250,-549.9999,-1325.000)">
      <path id="path1" style="fill:url(#linearGradient11);fill-opacity:1;stroke:none;stroke-width:0;stroke-linecap:round;stroke-linejoin:round;stroke-miterlimit:4;stroke-opacity:1;overflow:visible" d="M 24.000001,43.200001 C 24.000001,43.641601 23.641601,44.000001 23.200001,44.000001 C 22.758401,44.000001 22.400001,43.641601 22.400001,43.200001 C 22.400001,42.758401 22.758401,42.400001 23.200001,42.400001 C 23.641601,42.400001 24.000001,42.758401 24.000001,43.200001 z " transform="translate(-4.800001,-1.000000e-6)"/>
      <path id="path2" style="fill:url(#linearGradient12);fill-opacity:1;stroke:none;stroke-width:0;stroke-linecap:round;stroke-linejoin:round;stroke-miterlimit:4;stroke-opacity:1;overflow:visible" d="M 23.906358,43.296204 C 23.906358,43.625433 23.639158,43.892633 23.309929,43.892633 C 22.980700,43.892633 22.713500,43.625433 22.713500,43.296204 C 22.713500,42.966975 22.980700,42.699774 23.309929,42.699774 C 23.639158,42.699774 23.906358,42.966975 23.906358,43.296204 z " transform="matrix(1.082474,0.000000,0.000000,1.082474,-6.832392,-3.667015)"/>
      <path id="path3" style="fill:url(#linearGradient13);fill-opacity:1;stroke:none;stroke-width:0;stroke-linecap:round;stroke-linejoin:round;stroke-miterlimit:4;stroke-opacity:1;overflow:visible" d="M 23.906358,43.296204 C 23.906358,43.625433 23.639158,43.892633 23.309929,43.892633 C 22.980700,43.892633 22.713500,43.625433 22.713500,43.296204 C 22.713500,42.966975 22.980700,42.699774 23.309929,42.699774 C 23.639158,42.699774 23.906358,42.966975 23.906358,43.296204 z " transform="matrix(0.969072,0.000000,0.000000,0.969072,-4.188999,1.242861)"/>
      <path id="path4" style="fill:url(#linearGradient14);fill-opacity:1;stroke:none;stroke-width:0;stroke-linecap:round;stroke-linejoin:round;stroke-miterlimit:4;stroke-opacity:1;overflow:visible" d="M 23.906358,43.296204 C 23.906358,43.625433 23.639158,43.892633 23.309929,43.892633 C 22.980700,43.892633 22.713500,43.625433 22.713500,43.296204 C 22.713500,42.966975 22.980700,42.699774 23.309929,42.699774 C 23.639158,42.699774 23.906358,42.966975 23.906358,43.296204 z " transform="matrix(0.773196,0.000000,0.000000,0.597938,0.376113,17.11875)"/>
    </g>
  </g>
</svg>
